<svg xmlns="http://www.w3.org/2000/svg" version="1.1" xmlns:xlink="http://www.w3.org/1999/xlink" xmlns:svgjs="http://svgjs.dev/svgjs" width="1500" height="1500" viewBox="0 0 1500 1500"><rect width="1500" height="1500" fill="#000000"></rect><g transform="matrix(0.6666666666666666,0,0,0.6666666666666666,249.39393939393938,483.74048997159053)"><svg viewBox="0 0 396 211" data-background-color="#000000" preserveAspectRatio="xMidYMid meet" height="799" width="1500" xmlns="http://www.w3.org/2000/svg" xmlns:xlink="http://www.w3.org/1999/xlink"><g id="tight-bounds" transform="matrix(1,0,0,1,0.2400000000000091,-0.029242898633754066)"><svg viewBox="0 0 395.52 211.0584857972675" height="211.0584857972675" width="395.52"><g><svg viewBox="0 0 628.0080181728151 335.1193906353591" height="211.0584857972675" width="395.52"><g transform="matrix(1,0,0,1,277.7559443966684,0)"><svg viewBox="0 0 350.2520737761468 335.1193906353591" height="335.1193906353591" width="350.2520737761468"><g id="textblocktransform"><svg viewBox="0 0 350.2520737761468 335.1193906353591" height="335.1193906353591" width="350.2520737761468" id="textblock"><g><svg viewBox="0 0 350.2520737761468 245.672304" height="245.672304" width="350.2520737761468"><g transform="matrix(1,0,0,1,0,0)"><svg width="350.2520737761468" viewBox="1.17 -26.27 37.94 26.61" height="245.672304" data-palette-color="url(#fb1159d2-4689-4296-a6fa-78638c47d45f)"></svg></g></svg></g><g transform="matrix(1,0,0,1,0,303.669638839104)"><svg viewBox="0 0 205.63299251397578 31.449751796255118" height="31.449751796255118" width="205.63299251397578"><g transform="matrix(1,0,0,1,0,0)"><svg width="205.63299251397578" viewBox="0.5 -35.35 233.73 35.75" height="31.449751796255118" data-palette-color="url(#b3c86585-fcc8-43d8-a4f1-6c0a868229d0)"></svg></g></svg></g></svg></g></svg></g><g transform="matrix(1,0,0,1,0,86.67905795844936)"><svg viewBox="0 0 161.76127471846036 161.76127471846036" height="161.76127471846036" width="161.76127471846036"><g><svg></svg></g><g id="icon-0"><svg viewBox="0 0 161.76127471846036 161.76127471846036" height="161.76127471846036" width="161.76127471846036"><g></g><g transform="matrix(1,0,0,1,70.37407200598122,70.37418874429918)"><svg viewBox="0 0 21.013130706497904 21.012897229862016" height="21.012897229862016" width="21.013130706497904"><g><svg xmlns="http://www.w3.org/2000/svg" xmlns:xlink="http://www.w3.org/1999/xlink" version="1.1" x="0" y="0" viewBox="4.967 5 90.001 90" enable-background="new 0 0 100 100" xml:space="preserve" height="21.012897229862016" width="21.013130706497904" class="icon-cg-0" data-fill-palette-color="accent" id="cg-0"></svg></g></svg></g></svg></g></svg></g></svg></g><defs></defs><mask id="9ee4f6ed-e3a3-4ac8-897d-9bbefe3af257"><g id="SvgjsG1052"><svg viewBox="0 0 395.52 211.0584857972675" height="211.0584857972675" width="395.52"><g><svg viewBox="0 0 628.0080181728151 335.1193906353591" height="211.0584857972675" width="395.52"><g transform="matrix(1,0,0,1,277.7559443966684,0)"><svg viewBox="0 0 350.2520737761468 335.1193906353591" height="335.1193906353591" width="350.2520737761468"><g id="SvgjsG1051"><svg viewBox="0 0 350.2520737761468 335.1193906353591" height="335.1193906353591" width="350.2520737761468" id="SvgjsSvg1050"><g><svg viewBox="0 0 350.2520737761468 245.672304" height="245.672304" width="350.2520737761468"><g transform="matrix(1,0,0,1,0,0)"><svg width="350.2520737761468" viewBox="1.17 -26.27 37.94 26.61" height="245.672304" data-palette-color="url(#fb1159d2-4689-4296-a6fa-78638c47d45f)"><path d="M4.74-6.79L4.74-18.07 1.56-18.07Q1.17-18.07 1.17-19.58L1.17-19.58Q1.17-19.97 1.27-20.12L1.27-20.12Q4-21.48 5.66-22.75L5.66-22.75Q6.4-23.29 7.37-24.15 8.35-25 9.06-25.61 9.77-26.22 9.81-26.27L9.81-26.27Q10.21-26.27 10.64-26.1 11.08-25.93 11.08-25.73L11.08-25.73 11.08-20.95 16.36-20.95Q16.75-20.95 16.75-20.46L16.75-20.46Q16.75-19.04 16.26-18.07L16.26-18.07 11.08-18.07 11.08-6.49Q11.08-2.78 13.72-2.78L13.72-2.78Q14.45-2.78 15.06-2.95 15.67-3.13 16.02-3.32 16.36-3.52 16.41-3.52L16.41-3.52Q16.6-3.52 16.82-3.03 17.04-2.54 17.04-2.29L17.04-2.29Q17.04-1.71 15.04-0.68 13.04 0.34 11.28 0.34L11.28 0.34Q8.59 0.34 6.67-1.34 4.74-3.03 4.74-6.79L4.74-6.79ZM31.2-21.83L31.2-21.83Q33.3-21.83 35.13-21.19 36.96-20.56 37.69-20 38.43-19.43 38.82-18.95L38.82-18.95Q38.82-14.45 36.18-14.45L36.18-14.45Q34.27-14.45 33.3-16.89L33.3-16.89Q32.86-18.02 32.2-18.58 31.54-19.14 30.37-19.14L30.37-19.14Q26.46-19.14 26.46-11.82L26.46-11.82Q26.46-3.56 31.98-3.56L31.98-3.56Q33.59-3.56 35.06-4.03 36.52-4.49 37.11-4.86 37.69-5.22 38.67-5.96L38.67-5.96Q39.11-5.76 39.11-5.03L39.11-5.03Q39.11-4.44 38.91-4.05L38.91-4.05Q38.43-2.83 36.01-1.25 33.59 0.34 30.56 0.34L30.56 0.34Q25.88 0.34 22.7-2.95 19.53-6.25 19.53-11.04L19.53-11.04Q19.53-15.53 22.92-18.68 26.32-21.83 31.2-21.83Z" opacity="1" transform="matrix(1,0,0,1,0,0)" fill="white" class="wordmark-text-0" id="SvgjsPath1049"></path></svg></g></svg></g><g transform="matrix(1,0,0,1,0,303.669638839104)"><svg viewBox="0 0 205.63299251397578 31.449751796255118" height="31.449751796255118" width="205.63299251397578"><g transform="matrix(1,0,0,1,0,0)"><svg width="205.63299251397578" viewBox="0.5 -35.35 233.73 35.75" height="31.449751796255118" data-palette-color="url(#b3c86585-fcc8-43d8-a4f1-6c0a868229d0)"><path d="M17.35-20L11.45-20 11.45-8.35Q11.45-7 12.23-6.3 13-5.6 14.25-5.6L14.25-5.6Q16.25-5.6 17.8-6.6L17.8-6.6 17.8-0.55Q15.95 0.25 12.8 0.25L12.8 0.25Q4.15 0.25 4.15-8.4L4.15-8.4 4.15-20 0.5-20 0.5-25.35 4.15-25.35 4.15-31.35 11.45-31.35 11.45-25.35 17.35-25.35 17.35-20ZM38-11.95L38-25.35 45.3-25.35 45.3 0 38 0 38-4.05Q36 0.2 30.3 0.2L30.3 0.2Q26.4 0.2 24.22-1.98 22.05-4.15 22.05-8.4L22.05-8.4 22.05-25.35 29.35-25.35 29.35-10.05Q29.35-5.6 33.25-5.6L33.25-5.6Q38-5.6 38-11.95L38-11.95ZM51.3-25.35L58.55-25.35 58.55-20.65Q59.25-22.85 60.87-24.18 62.5-25.5 64.65-25.5L64.65-25.5Q65.84-25.5 66.55-25.3L66.55-25.3 66.55-18.4Q65.34-18.95 63.8-18.95L63.8-18.95Q61.45-18.95 60-17.23 58.55-15.5 58.55-12.65L58.55-12.65 58.55 0 51.25 0 51.3-25.35ZM82.69-5.8L82.69-5.8Q84.99-5.8 86.59-7.68 88.19-9.55 88.19-12.6L88.19-12.6Q88.19-15.9 86.62-17.75 85.04-19.6 82.74-19.6 80.44-19.6 78.77-17.85 77.09-16.1 77.09-12.95L77.09-12.95Q77.09-9.7 78.64-7.75 80.19-5.8 82.69-5.8ZM69.79-35.35L77.09-35.35 77.09-21.45Q79.69-25.65 84.64-25.65L84.64-25.65Q89.39-25.65 92.49-22.2 95.59-18.75 95.59-12.75L95.59-12.75Q95.59-7.4 92.62-3.55 89.64 0.3 84.69 0.3L84.69 0.3Q79.64 0.3 77.09-3.95L77.09-3.95 77.09 0 69.79 0 69.79-35.35ZM111.54 0.4L111.54 0.4Q105.59 0.4 102.34-3.18 99.09-6.75 99.09-12.35L99.09-12.35Q99.09-18.2 102.49-21.98 105.89-25.75 111.54-25.75L111.54-25.75Q117.44-25.75 120.69-22.1 123.94-18.45 123.94-12.8L123.94-12.8Q123.94-7.05 120.67-3.33 117.39 0.4 111.54 0.4ZM111.49-20L111.49-20Q109.09-20 107.89-17.95 106.69-15.9 106.69-12.65 106.69-9.4 107.92-7.33 109.14-5.25 111.59-5.25L111.59-5.25Q113.99-5.25 115.17-7.28 116.34-9.3 116.34-12.55L116.34-12.55Q116.34-20 111.49-20ZM147.34-12.6L147.34-12.6Q147.53-9.25 149.34-7.4 151.13-5.55 154.09-5.55L154.09-5.55Q157.24-5.55 160.13-7.3L160.13-7.3 160.13-1.2Q157.19 0.4 153.03 0.4L153.03 0.4Q147.34 0.4 143.63-3.23 139.94-6.85 139.94-12.6L139.94-12.6Q140.03-18.3 143.63-22.03 147.24-25.75 153.49-25.75L153.49-25.75Q157.34-25.75 160.13-24.3L160.13-24.3 160.13-18.05Q157.49-19.7 154.24-19.7L154.24-19.7Q151.19-19.7 149.28-17.88 147.38-16.05 147.34-12.6ZM164.63-35.35L171.93-35.35 171.93-21.05Q173.88-25.6 179.53-25.6L179.53-25.6Q183.23-25.6 185.56-23.25 187.88-20.9 187.88-16.15L187.88-16.15 187.88 0 180.58 0 180.58-15Q180.58-17.2 179.48-18.45 178.38-19.7 176.63-19.7L176.63-19.7Q175.88-19.7 175.21-19.48 174.53-19.25 173.73-18.68 172.93-18.1 172.43-16.73 171.93-15.35 171.93-13.4L171.93-13.4 171.93 0 164.63 0 164.63-35.35ZM206.18-8.55L206.18-10.4 203.83-10.4Q201.98-10.4 200.98-9.6 199.98-8.8 199.98-7.55L199.98-7.55Q199.98-5 202.93-5L202.93-5Q204.48-5 205.33-5.95 206.18-6.9 206.18-8.55L206.18-8.55ZM194.33-17.55L194.33-17.55 194.33-24.1Q197.33-25.8 202.98-25.8L202.98-25.8Q208.38-25.8 211.03-23.48 213.68-21.15 213.68-16.25L213.68-16.25 213.68 0 206.53 0 206.53-3.1Q204.93 0.15 200.23 0.15L200.23 0.15Q196.53 0.15 194.45-1.95 192.38-4.05 192.38-7.2L192.38-7.2Q192.38-10.85 195.06-12.88 197.73-14.9 202.98-14.9L202.98-14.9 206.18-14.9 206.18-16.65Q206.18-19.85 201.93-19.85L201.93-19.85Q197.83-19.85 194.33-17.55ZM233.78-20L227.88-20 227.88-8.35Q227.88-7 228.65-6.3 229.43-5.6 230.68-5.6L230.68-5.6Q232.68-5.6 234.23-6.6L234.23-6.6 234.23-0.55Q232.38 0.25 229.23 0.25L229.23 0.25Q220.58 0.25 220.58-8.4L220.58-8.4 220.58-20 216.93-20 216.93-25.35 220.58-25.35 220.58-31.35 227.88-31.35 227.88-25.35 233.78-25.35 233.78-20Z" opacity="1" transform="matrix(1,0,0,1,0,0)" fill="black" class="slogan-text-1" id="SvgjsPath1048"></path></svg></g></svg></g></svg></g></svg></g><g transform="matrix(1,0,0,1,0,86.67905795844936)"><svg viewBox="0 0 161.76127471846036 161.76127471846036" height="161.76127471846036" width="161.76127471846036"><g><svg></svg></g><g id="SvgjsG1047"><svg viewBox="0 0 161.76127471846036 161.76127471846036" height="161.76127471846036" width="161.76127471846036"><g><path d="M0 80.881c0-44.669 36.211-80.881 80.881-80.881 44.669 0 80.881 36.211 80.88 80.881 0 44.669-36.211 80.881-80.88 80.88-44.669 0-80.881-36.211-80.881-80.88zM80.881 139.606c32.433 0 58.726-26.292 58.725-58.725 0-32.433-26.292-58.726-58.725-58.726-32.433 0-58.726 26.292-58.726 58.726 0 32.433 26.292 58.726 58.726 58.725z" fill="black" stroke="transparent"></path></g><g transform="matrix(1,0,0,1,70.37407200598122,70.37418874429918)"><svg viewBox="0 0 21.013130706497904 21.012897229862016" height="21.012897229862016" width="21.013130706497904"><g><svg xmlns="http://www.w3.org/2000/svg" xmlns:xlink="http://www.w3.org/1999/xlink" version="1.1" x="0" y="0" viewBox="4.967 5 90.001 90" enable-background="new 0 0 100 100" xml:space="preserve" height="21.012897229862016" width="21.013130706497904" class="icon-cg-0" data-fill-palette-color="accent" id="SvgjsSvg1046"><g fill="black"><polygon points="81.588,69.219 76.042,77.733 49.901,5 30.566,58.797 24.486,43.546 4.967,95 17.555,95 45,95 64.794,95 82.249,95    94.968,95  " fill="black"></polygon></g></svg></g></svg></g></svg></g></svg></g></svg></g><defs><mask></mask></defs></svg><rect width="395.52" height="211.0584857972675" fill="black" stroke="none" visibility="hidden"></rect></g></mask><linearGradient x1="0.054" x2="0.941" y1="0.5" y2="0.5" id="fb1159d2-4689-4296-a6fa-78638c47d45f"><stop stop-color="#0f3054" offset="0"></stop><stop stop-color="#3b8dcb" offset="0.498"></stop><stop stop-color="#0f3054" offset="1"></stop></linearGradient><rect width="395.52" height="211.0584857972675" fill="url(#fb1159d2-4689-4296-a6fa-78638c47d45f)" mask="url(#9ee4f6ed-e3a3-4ac8-897d-9bbefe3af257)" data-fill-palette-color="primary"></rect><mask id="e7b37eb2-673c-41b9-9658-a97d3c336399"><g id="SvgjsG1065"><svg viewBox="0 0 395.52 211.0584857972675" height="211.0584857972675" width="395.52"><g><svg viewBox="0 0 628.0080181728151 335.1193906353591" height="211.0584857972675" width="395.52"><g transform="matrix(1,0,0,1,277.7559443966684,0)"><svg viewBox="0 0 350.2520737761468 335.1193906353591" height="335.1193906353591" width="350.2520737761468"><g id="SvgjsG1064"><svg viewBox="0 0 350.2520737761468 335.1193906353591" height="335.1193906353591" width="350.2520737761468" id="SvgjsSvg1063"><g><svg viewBox="0 0 350.2520737761468 245.672304" height="245.672304" width="350.2520737761468"><g transform="matrix(1,0,0,1,0,0)"><svg width="350.2520737761468" viewBox="1.17 -26.27 37.94 26.61" height="245.672304" data-palette-color="url(#fb1159d2-4689-4296-a6fa-78638c47d45f)"></svg></g></svg></g><g transform="matrix(1,0,0,1,0,303.669638839104)"><svg viewBox="0 0 205.63299251397578 31.449751796255118" height="31.449751796255118" width="205.63299251397578"><g transform="matrix(1,0,0,1,0,0)"><svg width="205.63299251397578" viewBox="0.5 -35.35 233.73 35.75" height="31.449751796255118" data-palette-color="url(#b3c86585-fcc8-43d8-a4f1-6c0a868229d0)"><path d="M17.35-20L11.45-20 11.45-8.35Q11.45-7 12.23-6.3 13-5.6 14.25-5.6L14.25-5.6Q16.25-5.6 17.8-6.6L17.8-6.6 17.8-0.55Q15.95 0.25 12.8 0.25L12.8 0.25Q4.15 0.25 4.15-8.4L4.15-8.4 4.15-20 0.5-20 0.5-25.35 4.15-25.35 4.15-31.35 11.45-31.35 11.45-25.35 17.35-25.35 17.35-20ZM38-11.95L38-25.35 45.3-25.35 45.3 0 38 0 38-4.05Q36 0.2 30.3 0.2L30.3 0.2Q26.4 0.2 24.22-1.98 22.05-4.15 22.05-8.4L22.05-8.4 22.05-25.35 29.35-25.35 29.35-10.05Q29.35-5.6 33.25-5.6L33.25-5.6Q38-5.6 38-11.95L38-11.95ZM51.3-25.35L58.55-25.35 58.55-20.65Q59.25-22.85 60.87-24.18 62.5-25.5 64.65-25.5L64.65-25.5Q65.84-25.5 66.55-25.3L66.55-25.3 66.55-18.4Q65.34-18.95 63.8-18.95L63.8-18.95Q61.45-18.95 60-17.23 58.55-15.5 58.55-12.65L58.55-12.65 58.55 0 51.25 0 51.3-25.35ZM82.69-5.8L82.69-5.8Q84.99-5.8 86.59-7.68 88.19-9.55 88.19-12.6L88.19-12.6Q88.19-15.9 86.62-17.75 85.04-19.6 82.74-19.6 80.44-19.6 78.77-17.85 77.09-16.1 77.09-12.95L77.09-12.95Q77.09-9.7 78.64-7.75 80.19-5.8 82.69-5.8ZM69.79-35.35L77.09-35.35 77.09-21.45Q79.69-25.65 84.64-25.65L84.64-25.65Q89.39-25.65 92.49-22.2 95.59-18.75 95.59-12.75L95.59-12.75Q95.59-7.4 92.62-3.55 89.64 0.3 84.69 0.3L84.69 0.3Q79.64 0.3 77.09-3.95L77.09-3.95 77.09 0 69.79 0 69.79-35.35ZM111.54 0.4L111.54 0.4Q105.59 0.4 102.34-3.18 99.09-6.75 99.09-12.35L99.09-12.35Q99.09-18.2 102.49-21.98 105.89-25.75 111.54-25.75L111.54-25.75Q117.44-25.75 120.69-22.1 123.94-18.45 123.94-12.8L123.94-12.8Q123.94-7.05 120.67-3.33 117.39 0.4 111.54 0.4ZM111.49-20L111.49-20Q109.09-20 107.89-17.95 106.69-15.9 106.69-12.65 106.69-9.4 107.92-7.33 109.14-5.25 111.59-5.25L111.59-5.25Q113.99-5.25 115.17-7.28 116.34-9.3 116.34-12.55L116.34-12.55Q116.34-20 111.49-20ZM147.34-12.6L147.34-12.6Q147.53-9.25 149.34-7.4 151.13-5.55 154.09-5.55L154.09-5.55Q157.24-5.55 160.13-7.3L160.13-7.3 160.13-1.2Q157.19 0.4 153.03 0.4L153.03 0.4Q147.34 0.4 143.63-3.23 139.94-6.85 139.94-12.6L139.94-12.6Q140.03-18.3 143.63-22.03 147.24-25.75 153.49-25.75L153.49-25.75Q157.34-25.75 160.13-24.3L160.13-24.3 160.13-18.05Q157.49-19.7 154.24-19.7L154.24-19.7Q151.19-19.7 149.28-17.88 147.38-16.05 147.34-12.6ZM164.63-35.35L171.93-35.35 171.93-21.05Q173.88-25.6 179.53-25.6L179.53-25.6Q183.23-25.6 185.56-23.25 187.88-20.9 187.88-16.15L187.88-16.15 187.88 0 180.58 0 180.58-15Q180.58-17.2 179.48-18.45 178.38-19.7 176.63-19.7L176.63-19.7Q175.88-19.7 175.21-19.48 174.53-19.25 173.73-18.68 172.93-18.1 172.43-16.73 171.93-15.35 171.93-13.4L171.93-13.4 171.93 0 164.63 0 164.63-35.35ZM206.18-8.55L206.18-10.4 203.83-10.4Q201.98-10.4 200.98-9.6 199.98-8.8 199.98-7.55L199.98-7.55Q199.98-5 202.93-5L202.93-5Q204.48-5 205.33-5.95 206.18-6.9 206.18-8.55L206.18-8.55ZM194.33-17.55L194.33-17.55 194.33-24.1Q197.33-25.8 202.98-25.8L202.98-25.8Q208.38-25.8 211.03-23.48 213.68-21.15 213.68-16.25L213.68-16.25 213.68 0 206.53 0 206.53-3.1Q204.93 0.15 200.23 0.15L200.23 0.15Q196.53 0.15 194.45-1.95 192.38-4.05 192.38-7.2L192.38-7.2Q192.38-10.85 195.06-12.88 197.73-14.9 202.98-14.9L202.98-14.9 206.18-14.9 206.18-16.65Q206.18-19.85 201.93-19.85L201.93-19.85Q197.83-19.85 194.33-17.55ZM233.78-20L227.88-20 227.88-8.35Q227.88-7 228.65-6.3 229.43-5.6 230.68-5.6L230.68-5.6Q232.68-5.6 234.23-6.6L234.23-6.6 234.23-0.55Q232.38 0.25 229.23 0.25L229.23 0.25Q220.58 0.25 220.58-8.4L220.58-8.4 220.58-20 216.93-20 216.93-25.35 220.58-25.35 220.58-31.35 227.88-31.35 227.88-25.35 233.78-25.35 233.78-20Z" opacity="1" transform="matrix(1,0,0,1,0,0)" fill="white" class="slogan-text-1" id="SvgjsPath1062"></path></svg></g></svg></g></svg></g></svg></g><g transform="matrix(1,0,0,1,0,86.67905795844936)"><svg viewBox="0 0 161.76127471846036 161.76127471846036" height="161.76127471846036" width="161.76127471846036"><g><svg></svg></g><g id="SvgjsG1061"><svg viewBox="0 0 161.76127471846036 161.76127471846036" height="161.76127471846036" width="161.76127471846036"><g><path d="M0 80.881c0-44.669 36.211-80.881 80.881-80.881 44.669 0 80.881 36.211 80.88 80.881 0 44.669-36.211 80.881-80.88 80.88-44.669 0-80.881-36.211-80.881-80.88zM80.881 139.606c32.433 0 58.726-26.292 58.725-58.725 0-32.433-26.292-58.726-58.725-58.726-32.433 0-58.726 26.292-58.726 58.726 0 32.433 26.292 58.726 58.726 58.725z" fill="black" stroke="transparent"></path></g><g transform="matrix(1,0,0,1,70.37407200598122,70.37418874429918)"><svg viewBox="0 0 21.013130706497904 21.012897229862016" height="21.012897229862016" width="21.013130706497904"><g><svg xmlns="http://www.w3.org/2000/svg" xmlns:xlink="http://www.w3.org/1999/xlink" version="1.1" x="0" y="0" viewBox="4.967 5 90.001 90" enable-background="new 0 0 100 100" xml:space="preserve" height="21.012897229862016" width="21.013130706497904" class="icon-cg-0" data-fill-palette-color="accent" id="SvgjsSvg1060"><g fill="black"><polygon points="81.588,69.219 76.042,77.733 49.901,5 30.566,58.797 24.486,43.546 4.967,95 17.555,95 45,95 64.794,95 82.249,95    94.968,95  " fill="black"></polygon></g></svg></g></svg></g></svg></g></svg></g></svg></g><defs><mask></mask></defs><mask><g id="SvgjsG1059"><svg viewBox="0 0 395.52 211.0584857972675" height="211.0584857972675" width="395.52"><g><svg viewBox="0 0 628.0080181728151 335.1193906353591" height="211.0584857972675" width="395.52"><g transform="matrix(1,0,0,1,277.7559443966684,0)"><svg viewBox="0 0 350.2520737761468 335.1193906353591" height="335.1193906353591" width="350.2520737761468"><g id="SvgjsG1058"><svg viewBox="0 0 350.2520737761468 335.1193906353591" height="335.1193906353591" width="350.2520737761468" id="SvgjsSvg1057"><g><svg viewBox="0 0 350.2520737761468 245.672304" height="245.672304" width="350.2520737761468"><g transform="matrix(1,0,0,1,0,0)"><svg width="350.2520737761468" viewBox="1.17 -26.27 37.94 26.61" height="245.672304" data-palette-color="url(#fb1159d2-4689-4296-a6fa-78638c47d45f)"><path d="M4.74-6.79L4.74-18.07 1.56-18.07Q1.17-18.07 1.17-19.58L1.17-19.58Q1.17-19.97 1.27-20.12L1.27-20.12Q4-21.48 5.66-22.75L5.66-22.75Q6.4-23.29 7.37-24.15 8.35-25 9.06-25.61 9.77-26.22 9.81-26.27L9.81-26.27Q10.21-26.27 10.64-26.1 11.08-25.93 11.08-25.73L11.08-25.73 11.08-20.95 16.36-20.95Q16.75-20.95 16.75-20.46L16.75-20.46Q16.75-19.04 16.26-18.07L16.26-18.07 11.08-18.07 11.08-6.49Q11.08-2.78 13.72-2.78L13.72-2.78Q14.45-2.78 15.06-2.95 15.67-3.13 16.02-3.32 16.36-3.52 16.41-3.52L16.41-3.52Q16.6-3.52 16.82-3.03 17.04-2.54 17.04-2.29L17.04-2.29Q17.04-1.71 15.04-0.68 13.04 0.34 11.28 0.34L11.28 0.34Q8.59 0.34 6.67-1.34 4.74-3.03 4.74-6.79L4.74-6.79ZM31.2-21.83L31.2-21.83Q33.3-21.83 35.13-21.19 36.96-20.56 37.69-20 38.43-19.43 38.82-18.95L38.82-18.95Q38.82-14.45 36.18-14.45L36.18-14.45Q34.27-14.45 33.3-16.89L33.3-16.89Q32.86-18.02 32.2-18.58 31.54-19.14 30.37-19.14L30.37-19.14Q26.46-19.14 26.46-11.82L26.46-11.82Q26.46-3.56 31.98-3.56L31.98-3.56Q33.59-3.56 35.06-4.03 36.52-4.49 37.11-4.86 37.69-5.22 38.67-5.96L38.67-5.96Q39.11-5.76 39.11-5.03L39.11-5.03Q39.11-4.44 38.91-4.05L38.91-4.05Q38.43-2.83 36.01-1.25 33.59 0.34 30.56 0.34L30.56 0.34Q25.88 0.34 22.7-2.95 19.53-6.25 19.53-11.04L19.53-11.04Q19.53-15.53 22.92-18.68 26.32-21.83 31.2-21.83Z" opacity="1" transform="matrix(1,0,0,1,0,0)" fill="black" class="wordmark-text-0" id="SvgjsPath1056"></path></svg></g></svg></g><g transform="matrix(1,0,0,1,0,303.669638839104)"><svg viewBox="0 0 205.63299251397578 31.449751796255118" height="31.449751796255118" width="205.63299251397578"><g transform="matrix(1,0,0,1,0,0)"><svg width="205.63299251397578" viewBox="0.5 -35.35 233.73 35.75" height="31.449751796255118" data-palette-color="url(#b3c86585-fcc8-43d8-a4f1-6c0a868229d0)"><path d="M17.35-20L11.45-20 11.45-8.35Q11.45-7 12.23-6.3 13-5.6 14.25-5.6L14.25-5.6Q16.25-5.6 17.8-6.6L17.8-6.6 17.8-0.55Q15.95 0.25 12.8 0.25L12.8 0.25Q4.15 0.25 4.15-8.4L4.15-8.4 4.15-20 0.5-20 0.5-25.35 4.15-25.35 4.15-31.35 11.45-31.35 11.45-25.35 17.35-25.35 17.35-20ZM38-11.95L38-25.35 45.3-25.35 45.3 0 38 0 38-4.05Q36 0.2 30.3 0.2L30.3 0.2Q26.4 0.2 24.22-1.98 22.05-4.15 22.05-8.4L22.05-8.4 22.05-25.35 29.35-25.35 29.35-10.05Q29.35-5.6 33.25-5.6L33.25-5.6Q38-5.6 38-11.95L38-11.95ZM51.3-25.35L58.55-25.35 58.55-20.65Q59.25-22.85 60.87-24.18 62.5-25.5 64.65-25.5L64.65-25.5Q65.84-25.5 66.55-25.3L66.55-25.3 66.55-18.4Q65.34-18.95 63.8-18.95L63.8-18.95Q61.45-18.95 60-17.23 58.55-15.5 58.55-12.65L58.55-12.65 58.55 0 51.25 0 51.3-25.35ZM82.69-5.8L82.69-5.8Q84.99-5.8 86.59-7.68 88.19-9.55 88.19-12.6L88.19-12.6Q88.19-15.9 86.62-17.75 85.04-19.6 82.74-19.6 80.44-19.6 78.77-17.85 77.09-16.1 77.09-12.95L77.09-12.95Q77.09-9.7 78.64-7.75 80.19-5.8 82.69-5.8ZM69.79-35.35L77.09-35.35 77.09-21.45Q79.69-25.65 84.64-25.65L84.64-25.65Q89.39-25.65 92.49-22.2 95.59-18.75 95.59-12.75L95.59-12.75Q95.59-7.4 92.62-3.55 89.64 0.3 84.69 0.3L84.69 0.3Q79.64 0.3 77.09-3.95L77.09-3.95 77.09 0 69.79 0 69.79-35.35ZM111.54 0.4L111.54 0.4Q105.59 0.4 102.34-3.18 99.09-6.75 99.09-12.35L99.09-12.35Q99.09-18.2 102.49-21.98 105.89-25.75 111.54-25.75L111.54-25.75Q117.44-25.75 120.69-22.1 123.94-18.45 123.94-12.8L123.94-12.8Q123.94-7.05 120.67-3.33 117.39 0.4 111.54 0.4ZM111.49-20L111.49-20Q109.09-20 107.89-17.95 106.69-15.9 106.69-12.65 106.69-9.4 107.92-7.33 109.14-5.25 111.59-5.25L111.59-5.25Q113.99-5.25 115.17-7.28 116.34-9.3 116.34-12.55L116.34-12.55Q116.34-20 111.49-20ZM147.34-12.6L147.34-12.6Q147.53-9.25 149.34-7.4 151.13-5.55 154.09-5.55L154.09-5.55Q157.24-5.55 160.13-7.3L160.13-7.3 160.13-1.2Q157.19 0.4 153.03 0.4L153.03 0.4Q147.34 0.4 143.63-3.23 139.94-6.85 139.94-12.6L139.94-12.6Q140.03-18.3 143.63-22.03 147.24-25.75 153.49-25.75L153.49-25.75Q157.34-25.75 160.13-24.3L160.13-24.3 160.13-18.05Q157.49-19.7 154.24-19.7L154.24-19.7Q151.19-19.7 149.28-17.88 147.38-16.05 147.34-12.6ZM164.63-35.35L171.93-35.35 171.93-21.05Q173.88-25.6 179.53-25.6L179.53-25.6Q183.23-25.6 185.56-23.25 187.88-20.9 187.88-16.15L187.88-16.15 187.88 0 180.58 0 180.58-15Q180.58-17.2 179.48-18.45 178.38-19.7 176.63-19.7L176.63-19.7Q175.88-19.7 175.21-19.48 174.53-19.25 173.73-18.68 172.93-18.1 172.43-16.73 171.93-15.35 171.93-13.4L171.93-13.4 171.93 0 164.63 0 164.63-35.35ZM206.18-8.55L206.18-10.4 203.83-10.4Q201.98-10.4 200.98-9.6 199.98-8.8 199.98-7.55L199.98-7.55Q199.98-5 202.93-5L202.93-5Q204.48-5 205.33-5.95 206.18-6.9 206.18-8.55L206.18-8.55ZM194.33-17.55L194.33-17.55 194.33-24.1Q197.33-25.8 202.98-25.8L202.98-25.8Q208.38-25.8 211.03-23.48 213.68-21.15 213.68-16.25L213.68-16.25 213.68 0 206.53 0 206.53-3.1Q204.93 0.15 200.23 0.15L200.23 0.15Q196.53 0.15 194.45-1.95 192.38-4.05 192.38-7.2L192.38-7.2Q192.38-10.85 195.06-12.88 197.73-14.9 202.98-14.9L202.98-14.9 206.18-14.9 206.18-16.65Q206.18-19.85 201.93-19.85L201.93-19.85Q197.83-19.85 194.33-17.55ZM233.78-20L227.88-20 227.88-8.35Q227.88-7 228.65-6.3 229.43-5.6 230.68-5.6L230.68-5.6Q232.68-5.6 234.23-6.6L234.23-6.6 234.23-0.55Q232.38 0.25 229.23 0.25L229.23 0.25Q220.58 0.25 220.58-8.4L220.58-8.4 220.58-20 216.93-20 216.93-25.35 220.58-25.35 220.58-31.35 227.88-31.35 227.88-25.35 233.78-25.35 233.78-20Z" opacity="1" transform="matrix(1,0,0,1,0,0)" fill="black" class="slogan-text-1" id="SvgjsPath1055"></path></svg></g></svg></g></svg></g></svg></g><g transform="matrix(1,0,0,1,0,86.67905795844936)"><svg viewBox="0 0 161.76127471846036 161.76127471846036" height="161.76127471846036" width="161.76127471846036"><g><svg></svg></g><g id="SvgjsG1054"><svg viewBox="0 0 161.76127471846036 161.76127471846036" height="161.76127471846036" width="161.76127471846036"><g><path d="M0 80.881c0-44.669 36.211-80.881 80.881-80.881 44.669 0 80.881 36.211 80.88 80.881 0 44.669-36.211 80.881-80.88 80.88-44.669 0-80.881-36.211-80.881-80.88zM80.881 139.606c32.433 0 58.726-26.292 58.725-58.725 0-32.433-26.292-58.726-58.725-58.726-32.433 0-58.726 26.292-58.726 58.726 0 32.433 26.292 58.726 58.726 58.725z" fill="black" stroke="transparent"></path></g><g transform="matrix(1,0,0,1,70.37407200598122,70.37418874429918)"><svg viewBox="0 0 21.013130706497904 21.012897229862016" height="21.012897229862016" width="21.013130706497904"><g><svg xmlns="http://www.w3.org/2000/svg" xmlns:xlink="http://www.w3.org/1999/xlink" version="1.1" x="0" y="0" viewBox="4.967 5 90.001 90" enable-background="new 0 0 100 100" xml:space="preserve" height="21.012897229862016" width="21.013130706497904" class="icon-cg-0" data-fill-palette-color="accent" id="SvgjsSvg1053"><g fill="black"><polygon points="81.588,69.219 76.042,77.733 49.901,5 30.566,58.797 24.486,43.546 4.967,95 17.555,95 45,95 64.794,95 82.249,95    94.968,95  " fill="black"></polygon></g></svg></g></svg></g></svg></g></svg></g></svg></g><defs><mask></mask></defs></svg><rect width="395.52" height="211.0584857972675" fill="black" stroke="none" visibility="hidden"></rect></g></mask></svg><rect width="395.52" height="211.0584857972675" fill="black" stroke="none" visibility="hidden"></rect></g></mask><linearGradient x1="0.054" x2="0.941" y1="0.5" y2="0.5" id="b3c86585-fcc8-43d8-a4f1-6c0a868229d0"><stop stop-color="#0f3054" offset="0"></stop><stop stop-color="#3b8dcb" offset="0.498"></stop><stop stop-color="#0f3054" offset="1"></stop></linearGradient><rect width="395.52" height="211.0584857972675" fill="url(#b3c86585-fcc8-43d8-a4f1-6c0a868229d0)" mask="url(#e7b37eb2-673c-41b9-9658-a97d3c336399)" data-fill-palette-color="secondary"></rect><mask id="2d7093c8-5782-4ee5-b14d-7ae9840cfd84"><g id="SvgjsG1090"><svg viewBox="0 0 395.52 211.0584857972675" height="211.0584857972675" width="395.52"><g><svg viewBox="0 0 628.0080181728151 335.1193906353591" height="211.0584857972675" width="395.52"><g transform="matrix(1,0,0,1,277.7559443966684,0)"><svg viewBox="0 0 350.2520737761468 335.1193906353591" height="335.1193906353591" width="350.2520737761468"><g id="SvgjsG1089"><svg viewBox="0 0 350.2520737761468 335.1193906353591" height="335.1193906353591" width="350.2520737761468" id="SvgjsSvg1088"><g><svg viewBox="0 0 350.2520737761468 245.672304" height="245.672304" width="350.2520737761468"><g transform="matrix(1,0,0,1,0,0)"><svg width="350.2520737761468" viewBox="1.17 -26.27 37.94 26.61" height="245.672304" data-palette-color="url(#fb1159d2-4689-4296-a6fa-78638c47d45f)"></svg></g></svg></g><g transform="matrix(1,0,0,1,0,303.669638839104)"><svg viewBox="0 0 205.63299251397578 31.449751796255118" height="31.449751796255118" width="205.63299251397578"><g transform="matrix(1,0,0,1,0,0)"><svg width="205.63299251397578" viewBox="0.5 -35.35 233.73 35.75" height="31.449751796255118" data-palette-color="url(#b3c86585-fcc8-43d8-a4f1-6c0a868229d0)"></svg></g></svg></g></svg></g></svg></g><g transform="matrix(1,0,0,1,0,86.67905795844936)"><svg viewBox="0 0 161.76127471846036 161.76127471846036" height="161.76127471846036" width="161.76127471846036"><g><svg></svg></g><g id="SvgjsG1087"><svg viewBox="0 0 161.76127471846036 161.76127471846036" height="161.76127471846036" width="161.76127471846036"><g><path d="M0 80.881c0-44.669 36.211-80.881 80.881-80.881 44.669 0 80.881 36.211 80.88 80.881 0 44.669-36.211 80.881-80.88 80.88-44.669 0-80.881-36.211-80.881-80.88zM80.881 139.606c32.433 0 58.726-26.292 58.725-58.725 0-32.433-26.292-58.726-58.725-58.726-32.433 0-58.726 26.292-58.726 58.726 0 32.433 26.292 58.726 58.726 58.725z" fill="white" stroke="transparent"></path></g><g transform="matrix(1,0,0,1,70.37407200598122,70.37418874429918)"><svg viewBox="0 0 21.013130706497904 21.012897229862016" height="21.012897229862016" width="21.013130706497904"><g><svg xmlns="http://www.w3.org/2000/svg" xmlns:xlink="http://www.w3.org/1999/xlink" version="1.1" x="0" y="0" viewBox="4.967 5 90.001 90" enable-background="new 0 0 100 100" xml:space="preserve" height="21.012897229862016" width="21.013130706497904" class="icon-cg-0" data-fill-palette-color="accent" id="SvgjsSvg1086"><g fill="white"><polygon points="81.588,69.219 76.042,77.733 49.901,5 30.566,58.797 24.486,43.546 4.967,95 17.555,95 45,95 64.794,95 82.249,95    94.968,95  " fill="white"></polygon></g></svg></g></svg></g></svg></g></svg></g></svg></g><defs><mask></mask></defs><mask><g id="SvgjsG1085"><svg viewBox="0 0 395.52 211.0584857972675" height="211.0584857972675" width="395.52"><g><svg viewBox="0 0 628.0080181728151 335.1193906353591" height="211.0584857972675" width="395.52"><g transform="matrix(1,0,0,1,277.7559443966684,0)"><svg viewBox="0 0 350.2520737761468 335.1193906353591" height="335.1193906353591" width="350.2520737761468"><g id="SvgjsG1084"><svg viewBox="0 0 350.2520737761468 335.1193906353591" height="335.1193906353591" width="350.2520737761468" id="SvgjsSvg1083"><g><svg viewBox="0 0 350.2520737761468 245.672304" height="245.672304" width="350.2520737761468"><g transform="matrix(1,0,0,1,0,0)"><svg width="350.2520737761468" viewBox="1.17 -26.27 37.94 26.61" height="245.672304" data-palette-color="url(#fb1159d2-4689-4296-a6fa-78638c47d45f)"><path d="M4.74-6.79L4.74-18.07 1.56-18.07Q1.17-18.07 1.17-19.58L1.17-19.58Q1.17-19.97 1.27-20.12L1.27-20.12Q4-21.48 5.66-22.75L5.66-22.75Q6.4-23.29 7.37-24.15 8.35-25 9.06-25.61 9.77-26.22 9.81-26.27L9.81-26.27Q10.21-26.27 10.64-26.1 11.08-25.93 11.08-25.73L11.08-25.73 11.08-20.95 16.36-20.95Q16.75-20.95 16.75-20.46L16.75-20.46Q16.75-19.04 16.26-18.07L16.26-18.07 11.08-18.07 11.08-6.49Q11.08-2.78 13.72-2.78L13.72-2.78Q14.45-2.78 15.06-2.95 15.67-3.13 16.02-3.32 16.36-3.52 16.41-3.52L16.41-3.52Q16.6-3.52 16.82-3.03 17.04-2.54 17.04-2.29L17.04-2.29Q17.04-1.71 15.04-0.68 13.04 0.34 11.28 0.34L11.28 0.34Q8.59 0.34 6.67-1.34 4.74-3.03 4.74-6.79L4.74-6.79ZM31.2-21.83L31.2-21.83Q33.3-21.83 35.13-21.19 36.96-20.56 37.69-20 38.43-19.43 38.82-18.95L38.82-18.95Q38.82-14.45 36.18-14.45L36.18-14.45Q34.27-14.45 33.3-16.89L33.3-16.89Q32.86-18.02 32.2-18.58 31.54-19.14 30.37-19.14L30.37-19.14Q26.46-19.14 26.46-11.82L26.46-11.82Q26.46-3.56 31.98-3.56L31.98-3.56Q33.59-3.56 35.06-4.03 36.52-4.49 37.11-4.86 37.69-5.22 38.67-5.96L38.67-5.96Q39.11-5.76 39.11-5.03L39.11-5.03Q39.11-4.44 38.91-4.05L38.91-4.05Q38.43-2.83 36.01-1.25 33.59 0.34 30.56 0.34L30.56 0.34Q25.88 0.34 22.7-2.95 19.53-6.25 19.53-11.04L19.53-11.04Q19.53-15.53 22.92-18.68 26.32-21.83 31.2-21.83Z" opacity="1" transform="matrix(1,0,0,1,0,0)" fill="black" class="wordmark-text-0" id="SvgjsPath1082"></path></svg></g></svg></g><g transform="matrix(1,0,0,1,0,303.669638839104)"><svg viewBox="0 0 205.63299251397578 31.449751796255118" height="31.449751796255118" width="205.63299251397578"><g transform="matrix(1,0,0,1,0,0)"><svg width="205.63299251397578" viewBox="0.5 -35.35 233.73 35.75" height="31.449751796255118" data-palette-color="url(#b3c86585-fcc8-43d8-a4f1-6c0a868229d0)"><path d="M17.35-20L11.45-20 11.45-8.35Q11.45-7 12.23-6.3 13-5.6 14.25-5.6L14.25-5.6Q16.25-5.6 17.8-6.6L17.8-6.6 17.8-0.55Q15.95 0.25 12.8 0.25L12.8 0.25Q4.15 0.25 4.15-8.4L4.15-8.4 4.15-20 0.5-20 0.5-25.35 4.15-25.35 4.15-31.35 11.45-31.35 11.45-25.35 17.35-25.35 17.35-20ZM38-11.95L38-25.35 45.3-25.35 45.3 0 38 0 38-4.05Q36 0.2 30.3 0.2L30.3 0.2Q26.4 0.2 24.22-1.98 22.05-4.15 22.05-8.4L22.05-8.4 22.05-25.35 29.35-25.35 29.35-10.05Q29.35-5.6 33.25-5.6L33.25-5.6Q38-5.6 38-11.95L38-11.95ZM51.3-25.35L58.55-25.35 58.55-20.65Q59.25-22.85 60.87-24.18 62.5-25.5 64.65-25.5L64.65-25.5Q65.84-25.5 66.55-25.3L66.55-25.3 66.55-18.4Q65.34-18.95 63.8-18.95L63.8-18.95Q61.45-18.95 60-17.23 58.55-15.5 58.55-12.65L58.55-12.65 58.55 0 51.25 0 51.3-25.35ZM82.69-5.8L82.69-5.8Q84.99-5.8 86.59-7.68 88.19-9.55 88.19-12.6L88.19-12.6Q88.19-15.9 86.62-17.75 85.04-19.6 82.74-19.6 80.44-19.6 78.77-17.85 77.09-16.1 77.09-12.95L77.09-12.95Q77.09-9.7 78.64-7.75 80.19-5.8 82.69-5.8ZM69.79-35.35L77.09-35.35 77.09-21.45Q79.69-25.65 84.64-25.65L84.64-25.65Q89.39-25.65 92.49-22.2 95.59-18.75 95.59-12.75L95.59-12.75Q95.59-7.4 92.62-3.55 89.64 0.3 84.69 0.3L84.69 0.3Q79.64 0.3 77.09-3.95L77.09-3.95 77.09 0 69.79 0 69.79-35.35ZM111.54 0.4L111.54 0.4Q105.59 0.4 102.34-3.18 99.09-6.75 99.09-12.35L99.09-12.35Q99.09-18.2 102.49-21.98 105.89-25.75 111.54-25.75L111.54-25.75Q117.44-25.75 120.69-22.1 123.94-18.45 123.94-12.8L123.94-12.8Q123.94-7.05 120.67-3.33 117.39 0.4 111.54 0.4ZM111.49-20L111.49-20Q109.09-20 107.89-17.95 106.69-15.9 106.69-12.65 106.69-9.4 107.92-7.33 109.14-5.25 111.59-5.25L111.59-5.25Q113.99-5.25 115.17-7.28 116.34-9.3 116.34-12.55L116.34-12.55Q116.34-20 111.49-20ZM147.34-12.6L147.34-12.6Q147.53-9.25 149.34-7.4 151.13-5.55 154.09-5.55L154.09-5.55Q157.24-5.55 160.13-7.3L160.13-7.3 160.13-1.2Q157.19 0.4 153.03 0.4L153.03 0.4Q147.34 0.4 143.63-3.23 139.94-6.85 139.94-12.6L139.94-12.6Q140.03-18.3 143.63-22.03 147.24-25.75 153.49-25.75L153.49-25.75Q157.34-25.75 160.13-24.3L160.13-24.3 160.13-18.05Q157.49-19.7 154.24-19.7L154.24-19.7Q151.19-19.7 149.28-17.88 147.38-16.05 147.34-12.6ZM164.63-35.35L171.93-35.35 171.93-21.05Q173.88-25.6 179.53-25.6L179.53-25.6Q183.23-25.6 185.56-23.25 187.88-20.9 187.88-16.15L187.88-16.15 187.88 0 180.58 0 180.58-15Q180.58-17.2 179.48-18.45 178.38-19.7 176.63-19.7L176.63-19.7Q175.88-19.7 175.21-19.48 174.53-19.25 173.73-18.68 172.93-18.1 172.43-16.73 171.93-15.35 171.93-13.4L171.93-13.4 171.93 0 164.63 0 164.63-35.35ZM206.18-8.55L206.18-10.4 203.83-10.4Q201.98-10.4 200.98-9.6 199.98-8.8 199.98-7.55L199.98-7.55Q199.98-5 202.93-5L202.93-5Q204.48-5 205.33-5.95 206.18-6.9 206.18-8.55L206.18-8.55ZM194.33-17.55L194.33-17.55 194.33-24.1Q197.33-25.8 202.98-25.8L202.98-25.8Q208.38-25.8 211.03-23.48 213.68-21.15 213.68-16.25L213.68-16.25 213.68 0 206.53 0 206.53-3.1Q204.93 0.15 200.23 0.15L200.23 0.15Q196.53 0.15 194.45-1.95 192.38-4.05 192.38-7.2L192.38-7.2Q192.38-10.85 195.06-12.88 197.73-14.9 202.98-14.9L202.98-14.9 206.18-14.9 206.18-16.65Q206.18-19.85 201.93-19.85L201.93-19.85Q197.83-19.85 194.33-17.55ZM233.78-20L227.88-20 227.88-8.35Q227.88-7 228.65-6.3 229.43-5.6 230.68-5.6L230.68-5.6Q232.68-5.6 234.23-6.6L234.23-6.6 234.23-0.55Q232.38 0.25 229.23 0.25L229.23 0.25Q220.58 0.25 220.58-8.4L220.58-8.4 220.58-20 216.93-20 216.93-25.35 220.58-25.35 220.58-31.35 227.88-31.35 227.88-25.35 233.78-25.35 233.78-20Z" opacity="1" transform="matrix(1,0,0,1,0,0)" fill="black" class="slogan-text-1" id="SvgjsPath1081"></path></svg></g></svg></g></svg></g></svg></g><g transform="matrix(1,0,0,1,0,86.67905795844936)"><svg viewBox="0 0 161.76127471846036 161.76127471846036" height="161.76127471846036" width="161.76127471846036"><g><svg></svg></g><g id="SvgjsG1080"><svg viewBox="0 0 161.76127471846036 161.76127471846036" height="161.76127471846036" width="161.76127471846036"><g><path d="M0 80.881c0-44.669 36.211-80.881 80.881-80.881 44.669 0 80.881 36.211 80.88 80.881 0 44.669-36.211 80.881-80.88 80.88-44.669 0-80.881-36.211-80.881-80.88zM80.881 139.606c32.433 0 58.726-26.292 58.725-58.725 0-32.433-26.292-58.726-58.725-58.726-32.433 0-58.726 26.292-58.726 58.726 0 32.433 26.292 58.726 58.726 58.725z" fill="black" stroke="transparent"></path></g><g transform="matrix(1,0,0,1,70.37407200598122,70.37418874429918)"><svg viewBox="0 0 21.013130706497904 21.012897229862016" height="21.012897229862016" width="21.013130706497904"><g><svg xmlns="http://www.w3.org/2000/svg" xmlns:xlink="http://www.w3.org/1999/xlink" version="1.1" x="0" y="0" viewBox="4.967 5 90.001 90" enable-background="new 0 0 100 100" xml:space="preserve" height="21.012897229862016" width="21.013130706497904" class="icon-cg-0" data-fill-palette-color="accent" id="SvgjsSvg1079"><g fill="black"><polygon points="81.588,69.219 76.042,77.733 49.901,5 30.566,58.797 24.486,43.546 4.967,95 17.555,95 45,95 64.794,95 82.249,95    94.968,95  " fill="black"></polygon></g></svg></g></svg></g></svg></g></svg></g></svg></g><defs><mask></mask></defs></svg><rect width="395.52" height="211.0584857972675" fill="black" stroke="none" visibility="hidden"></rect></g></mask><mask><g id="SvgjsG1078"><svg viewBox="0 0 395.52 211.0584857972675" height="211.0584857972675" width="395.52"><g><svg viewBox="0 0 628.0080181728151 335.1193906353591" height="211.0584857972675" width="395.52"><g transform="matrix(1,0,0,1,277.7559443966684,0)"><svg viewBox="0 0 350.2520737761468 335.1193906353591" height="335.1193906353591" width="350.2520737761468"><g id="SvgjsG1077"><svg viewBox="0 0 350.2520737761468 335.1193906353591" height="335.1193906353591" width="350.2520737761468" id="SvgjsSvg1076"><g><svg viewBox="0 0 350.2520737761468 245.672304" height="245.672304" width="350.2520737761468"><g transform="matrix(1,0,0,1,0,0)"><svg width="350.2520737761468" viewBox="1.17 -26.27 37.94 26.61" height="245.672304" data-palette-color="url(#fb1159d2-4689-4296-a6fa-78638c47d45f)"></svg></g></svg></g><g transform="matrix(1,0,0,1,0,303.669638839104)"><svg viewBox="0 0 205.63299251397578 31.449751796255118" height="31.449751796255118" width="205.63299251397578"><g transform="matrix(1,0,0,1,0,0)"><svg width="205.63299251397578" viewBox="0.5 -35.35 233.73 35.75" height="31.449751796255118" data-palette-color="url(#b3c86585-fcc8-43d8-a4f1-6c0a868229d0)"><path d="M17.35-20L11.45-20 11.45-8.35Q11.45-7 12.23-6.3 13-5.6 14.25-5.6L14.25-5.6Q16.25-5.6 17.8-6.6L17.8-6.6 17.8-0.55Q15.95 0.25 12.8 0.25L12.8 0.25Q4.15 0.25 4.15-8.4L4.15-8.4 4.15-20 0.5-20 0.5-25.35 4.15-25.35 4.15-31.35 11.45-31.35 11.45-25.35 17.35-25.35 17.35-20ZM38-11.95L38-25.35 45.3-25.35 45.3 0 38 0 38-4.05Q36 0.2 30.3 0.2L30.3 0.2Q26.4 0.2 24.22-1.98 22.05-4.15 22.05-8.4L22.05-8.4 22.05-25.35 29.35-25.35 29.35-10.05Q29.35-5.6 33.25-5.6L33.25-5.6Q38-5.6 38-11.95L38-11.95ZM51.3-25.35L58.55-25.35 58.55-20.65Q59.25-22.85 60.87-24.18 62.5-25.5 64.65-25.5L64.65-25.5Q65.84-25.5 66.55-25.3L66.55-25.3 66.55-18.4Q65.34-18.95 63.8-18.95L63.8-18.95Q61.45-18.95 60-17.23 58.55-15.5 58.55-12.65L58.55-12.65 58.55 0 51.25 0 51.3-25.35ZM82.69-5.8L82.69-5.8Q84.99-5.8 86.59-7.68 88.19-9.55 88.19-12.6L88.19-12.6Q88.19-15.9 86.62-17.75 85.04-19.6 82.74-19.6 80.44-19.6 78.77-17.85 77.09-16.1 77.09-12.95L77.09-12.95Q77.09-9.7 78.64-7.75 80.19-5.8 82.69-5.8ZM69.79-35.35L77.09-35.35 77.09-21.45Q79.69-25.65 84.64-25.65L84.64-25.65Q89.39-25.65 92.49-22.2 95.59-18.75 95.59-12.75L95.59-12.75Q95.59-7.4 92.62-3.55 89.64 0.3 84.69 0.3L84.69 0.3Q79.64 0.3 77.09-3.95L77.09-3.95 77.09 0 69.79 0 69.79-35.35ZM111.54 0.4L111.54 0.4Q105.59 0.4 102.34-3.18 99.09-6.75 99.09-12.35L99.09-12.35Q99.09-18.2 102.49-21.98 105.89-25.75 111.54-25.75L111.54-25.75Q117.44-25.75 120.69-22.1 123.94-18.45 123.94-12.8L123.94-12.8Q123.94-7.05 120.67-3.33 117.39 0.4 111.54 0.4ZM111.49-20L111.49-20Q109.09-20 107.89-17.95 106.69-15.9 106.69-12.65 106.69-9.4 107.92-7.33 109.14-5.25 111.59-5.25L111.59-5.25Q113.99-5.25 115.17-7.28 116.34-9.3 116.34-12.55L116.34-12.55Q116.34-20 111.49-20ZM147.34-12.6L147.34-12.6Q147.53-9.25 149.34-7.4 151.13-5.55 154.09-5.55L154.09-5.55Q157.24-5.55 160.13-7.3L160.13-7.3 160.13-1.2Q157.19 0.4 153.03 0.4L153.03 0.4Q147.34 0.4 143.63-3.23 139.94-6.85 139.94-12.6L139.94-12.6Q140.03-18.3 143.63-22.03 147.24-25.75 153.49-25.75L153.49-25.75Q157.34-25.75 160.13-24.3L160.13-24.3 160.13-18.05Q157.49-19.7 154.24-19.7L154.24-19.7Q151.19-19.7 149.28-17.88 147.38-16.05 147.34-12.6ZM164.63-35.35L171.93-35.35 171.93-21.05Q173.88-25.6 179.53-25.6L179.53-25.6Q183.23-25.6 185.56-23.25 187.88-20.9 187.88-16.15L187.88-16.15 187.88 0 180.58 0 180.58-15Q180.58-17.2 179.48-18.45 178.38-19.7 176.63-19.7L176.63-19.7Q175.88-19.7 175.21-19.48 174.53-19.25 173.73-18.68 172.93-18.1 172.43-16.73 171.93-15.35 171.93-13.4L171.93-13.4 171.93 0 164.63 0 164.63-35.35ZM206.18-8.55L206.18-10.4 203.83-10.4Q201.98-10.4 200.98-9.6 199.98-8.8 199.98-7.55L199.98-7.55Q199.98-5 202.93-5L202.93-5Q204.48-5 205.33-5.95 206.18-6.9 206.18-8.55L206.18-8.55ZM194.33-17.55L194.33-17.55 194.33-24.1Q197.33-25.8 202.98-25.8L202.98-25.8Q208.38-25.8 211.03-23.48 213.68-21.15 213.68-16.25L213.68-16.25 213.68 0 206.53 0 206.53-3.1Q204.93 0.15 200.23 0.15L200.23 0.15Q196.53 0.15 194.45-1.95 192.38-4.05 192.38-7.2L192.38-7.2Q192.38-10.85 195.06-12.88 197.73-14.9 202.98-14.9L202.98-14.9 206.18-14.9 206.18-16.65Q206.18-19.85 201.93-19.85L201.93-19.85Q197.83-19.85 194.33-17.55ZM233.78-20L227.88-20 227.88-8.35Q227.88-7 228.65-6.3 229.43-5.6 230.68-5.6L230.68-5.6Q232.68-5.6 234.23-6.6L234.23-6.6 234.23-0.55Q232.38 0.25 229.23 0.25L229.23 0.25Q220.58 0.25 220.58-8.4L220.58-8.4 220.58-20 216.93-20 216.93-25.35 220.58-25.35 220.58-31.35 227.88-31.35 227.88-25.35 233.78-25.35 233.78-20Z" opacity="1" transform="matrix(1,0,0,1,0,0)" fill="black" class="slogan-text-1" id="SvgjsPath1075"></path></svg></g></svg></g></svg></g></svg></g><g transform="matrix(1,0,0,1,0,86.67905795844936)"><svg viewBox="0 0 161.76127471846036 161.76127471846036" height="161.76127471846036" width="161.76127471846036"><g><svg></svg></g><g id="SvgjsG1074"><svg viewBox="0 0 161.76127471846036 161.76127471846036" height="161.76127471846036" width="161.76127471846036"><g><path d="M0 80.881c0-44.669 36.211-80.881 80.881-80.881 44.669 0 80.881 36.211 80.88 80.881 0 44.669-36.211 80.881-80.88 80.88-44.669 0-80.881-36.211-80.881-80.88zM80.881 139.606c32.433 0 58.726-26.292 58.725-58.725 0-32.433-26.292-58.726-58.725-58.726-32.433 0-58.726 26.292-58.726 58.726 0 32.433 26.292 58.726 58.726 58.725z" fill="black" stroke="transparent"></path></g><g transform="matrix(1,0,0,1,70.37407200598122,70.37418874429918)"><svg viewBox="0 0 21.013130706497904 21.012897229862016" height="21.012897229862016" width="21.013130706497904"><g><svg xmlns="http://www.w3.org/2000/svg" xmlns:xlink="http://www.w3.org/1999/xlink" version="1.1" x="0" y="0" viewBox="4.967 5 90.001 90" enable-background="new 0 0 100 100" xml:space="preserve" height="21.012897229862016" width="21.013130706497904" class="icon-cg-0" data-fill-palette-color="accent" id="SvgjsSvg1073"><g fill="black"><polygon points="81.588,69.219 76.042,77.733 49.901,5 30.566,58.797 24.486,43.546 4.967,95 17.555,95 45,95 64.794,95 82.249,95    94.968,95  " fill="black"></polygon></g></svg></g></svg></g></svg></g></svg></g></svg></g><defs><mask></mask></defs><mask><g id="SvgjsG1072"><svg viewBox="0 0 395.52 211.0584857972675" height="211.0584857972675" width="395.52"><g><svg viewBox="0 0 628.0080181728151 335.1193906353591" height="211.0584857972675" width="395.52"><g transform="matrix(1,0,0,1,277.7559443966684,0)"><svg viewBox="0 0 350.2520737761468 335.1193906353591" height="335.1193906353591" width="350.2520737761468"><g id="SvgjsG1071"><svg viewBox="0 0 350.2520737761468 335.1193906353591" height="335.1193906353591" width="350.2520737761468" id="SvgjsSvg1070"><g><svg viewBox="0 0 350.2520737761468 245.672304" height="245.672304" width="350.2520737761468"><g transform="matrix(1,0,0,1,0,0)"><svg width="350.2520737761468" viewBox="1.17 -26.27 37.94 26.61" height="245.672304" data-palette-color="url(#fb1159d2-4689-4296-a6fa-78638c47d45f)"><path d="M4.74-6.79L4.74-18.07 1.56-18.07Q1.17-18.07 1.17-19.58L1.17-19.58Q1.17-19.97 1.27-20.12L1.27-20.12Q4-21.48 5.66-22.75L5.66-22.75Q6.4-23.29 7.37-24.15 8.35-25 9.06-25.61 9.77-26.22 9.81-26.27L9.81-26.27Q10.21-26.27 10.64-26.1 11.08-25.93 11.08-25.73L11.08-25.73 11.08-20.95 16.36-20.95Q16.75-20.95 16.75-20.46L16.75-20.46Q16.75-19.04 16.26-18.07L16.26-18.07 11.08-18.07 11.08-6.49Q11.08-2.78 13.72-2.78L13.72-2.78Q14.45-2.78 15.06-2.95 15.67-3.13 16.02-3.32 16.36-3.52 16.41-3.52L16.41-3.52Q16.6-3.52 16.82-3.03 17.04-2.54 17.04-2.29L17.04-2.29Q17.04-1.71 15.04-0.68 13.04 0.34 11.28 0.34L11.28 0.34Q8.59 0.34 6.67-1.34 4.74-3.03 4.74-6.79L4.74-6.79ZM31.2-21.83L31.2-21.83Q33.3-21.83 35.13-21.19 36.96-20.56 37.69-20 38.43-19.43 38.82-18.95L38.82-18.95Q38.82-14.45 36.18-14.45L36.18-14.45Q34.27-14.45 33.3-16.89L33.3-16.89Q32.86-18.02 32.2-18.58 31.54-19.14 30.37-19.14L30.37-19.14Q26.46-19.14 26.46-11.82L26.46-11.82Q26.46-3.56 31.98-3.56L31.98-3.56Q33.59-3.56 35.06-4.03 36.52-4.49 37.11-4.86 37.69-5.22 38.67-5.96L38.67-5.96Q39.11-5.76 39.11-5.03L39.11-5.03Q39.11-4.44 38.91-4.05L38.91-4.05Q38.43-2.83 36.01-1.25 33.59 0.34 30.56 0.34L30.56 0.34Q25.88 0.34 22.7-2.95 19.53-6.25 19.53-11.04L19.53-11.04Q19.53-15.53 22.92-18.68 26.32-21.83 31.2-21.83Z" opacity="1" transform="matrix(1,0,0,1,0,0)" fill="black" class="wordmark-text-0" id="SvgjsPath1069"></path></svg></g></svg></g><g transform="matrix(1,0,0,1,0,303.669638839104)"><svg viewBox="0 0 205.63299251397578 31.449751796255118" height="31.449751796255118" width="205.63299251397578"><g transform="matrix(1,0,0,1,0,0)"><svg width="205.63299251397578" viewBox="0.5 -35.35 233.73 35.75" height="31.449751796255118" data-palette-color="url(#b3c86585-fcc8-43d8-a4f1-6c0a868229d0)"><path d="M17.35-20L11.45-20 11.45-8.35Q11.45-7 12.23-6.3 13-5.6 14.25-5.6L14.25-5.6Q16.25-5.6 17.8-6.6L17.8-6.6 17.8-0.55Q15.95 0.25 12.8 0.25L12.8 0.25Q4.15 0.25 4.15-8.4L4.15-8.4 4.15-20 0.5-20 0.5-25.35 4.15-25.35 4.15-31.35 11.45-31.35 11.45-25.35 17.35-25.35 17.35-20ZM38-11.95L38-25.35 45.3-25.35 45.3 0 38 0 38-4.05Q36 0.2 30.3 0.2L30.3 0.2Q26.4 0.2 24.22-1.98 22.05-4.15 22.05-8.4L22.05-8.4 22.05-25.35 29.35-25.35 29.35-10.05Q29.35-5.6 33.25-5.6L33.25-5.6Q38-5.6 38-11.95L38-11.95ZM51.3-25.35L58.55-25.35 58.55-20.65Q59.25-22.85 60.87-24.18 62.5-25.5 64.65-25.5L64.65-25.5Q65.84-25.5 66.55-25.3L66.55-25.3 66.55-18.4Q65.34-18.95 63.8-18.95L63.8-18.95Q61.45-18.95 60-17.23 58.55-15.5 58.55-12.65L58.55-12.65 58.55 0 51.25 0 51.3-25.35ZM82.69-5.8L82.69-5.8Q84.99-5.8 86.59-7.68 88.19-9.55 88.19-12.6L88.19-12.6Q88.19-15.9 86.62-17.75 85.04-19.6 82.74-19.6 80.44-19.6 78.77-17.85 77.09-16.1 77.09-12.95L77.09-12.95Q77.09-9.7 78.64-7.75 80.19-5.8 82.69-5.8ZM69.79-35.35L77.09-35.35 77.09-21.45Q79.69-25.65 84.64-25.65L84.64-25.65Q89.39-25.65 92.49-22.2 95.59-18.75 95.59-12.75L95.59-12.75Q95.59-7.4 92.62-3.55 89.64 0.3 84.69 0.3L84.69 0.3Q79.64 0.3 77.09-3.95L77.09-3.95 77.09 0 69.79 0 69.79-35.35ZM111.54 0.4L111.54 0.4Q105.59 0.4 102.34-3.18 99.09-6.75 99.09-12.35L99.09-12.35Q99.09-18.2 102.49-21.98 105.89-25.75 111.54-25.75L111.54-25.75Q117.44-25.75 120.69-22.1 123.94-18.45 123.94-12.8L123.94-12.8Q123.94-7.05 120.67-3.33 117.39 0.4 111.54 0.4ZM111.49-20L111.49-20Q109.09-20 107.89-17.95 106.69-15.9 106.69-12.65 106.69-9.4 107.92-7.33 109.14-5.25 111.59-5.25L111.59-5.25Q113.99-5.25 115.17-7.28 116.34-9.3 116.34-12.55L116.34-12.55Q116.34-20 111.49-20ZM147.34-12.6L147.34-12.6Q147.53-9.25 149.34-7.4 151.13-5.55 154.09-5.55L154.09-5.55Q157.24-5.55 160.13-7.3L160.13-7.3 160.13-1.2Q157.19 0.4 153.03 0.4L153.03 0.4Q147.34 0.4 143.63-3.23 139.94-6.85 139.94-12.6L139.94-12.6Q140.03-18.3 143.63-22.03 147.24-25.75 153.49-25.75L153.49-25.75Q157.34-25.75 160.13-24.3L160.13-24.3 160.13-18.05Q157.49-19.7 154.24-19.7L154.24-19.7Q151.19-19.7 149.28-17.88 147.38-16.05 147.34-12.6ZM164.63-35.35L171.93-35.35 171.93-21.05Q173.88-25.6 179.53-25.6L179.53-25.6Q183.23-25.6 185.56-23.25 187.88-20.9 187.88-16.15L187.88-16.15 187.88 0 180.58 0 180.58-15Q180.58-17.2 179.48-18.45 178.38-19.7 176.63-19.7L176.63-19.7Q175.88-19.7 175.21-19.48 174.53-19.25 173.73-18.68 172.93-18.1 172.43-16.73 171.93-15.35 171.93-13.4L171.93-13.4 171.93 0 164.63 0 164.63-35.35ZM206.18-8.55L206.18-10.4 203.83-10.4Q201.98-10.4 200.98-9.6 199.98-8.8 199.98-7.55L199.98-7.55Q199.98-5 202.93-5L202.93-5Q204.48-5 205.33-5.95 206.18-6.9 206.18-8.55L206.18-8.55ZM194.33-17.55L194.33-17.55 194.33-24.1Q197.33-25.8 202.98-25.8L202.98-25.8Q208.38-25.8 211.03-23.48 213.68-21.15 213.68-16.25L213.68-16.25 213.68 0 206.53 0 206.53-3.1Q204.93 0.15 200.23 0.15L200.23 0.15Q196.53 0.15 194.45-1.95 192.38-4.05 192.38-7.2L192.38-7.2Q192.38-10.85 195.06-12.88 197.73-14.9 202.98-14.9L202.98-14.9 206.18-14.9 206.18-16.65Q206.18-19.85 201.93-19.85L201.93-19.85Q197.83-19.85 194.33-17.55ZM233.78-20L227.88-20 227.88-8.35Q227.88-7 228.65-6.3 229.43-5.6 230.68-5.6L230.68-5.6Q232.68-5.6 234.23-6.6L234.23-6.6 234.23-0.55Q232.38 0.25 229.23 0.25L229.23 0.25Q220.58 0.25 220.58-8.4L220.58-8.4 220.58-20 216.93-20 216.93-25.35 220.58-25.35 220.58-31.35 227.88-31.35 227.88-25.35 233.78-25.35 233.78-20Z" opacity="1" transform="matrix(1,0,0,1,0,0)" fill="black" class="slogan-text-1" id="SvgjsPath1068"></path></svg></g></svg></g></svg></g></svg></g><g transform="matrix(1,0,0,1,0,86.67905795844936)"><svg viewBox="0 0 161.76127471846036 161.76127471846036" height="161.76127471846036" width="161.76127471846036"><g><svg></svg></g><g id="SvgjsG1067"><svg viewBox="0 0 161.76127471846036 161.76127471846036" height="161.76127471846036" width="161.76127471846036"><g><path d="M0 80.881c0-44.669 36.211-80.881 80.881-80.881 44.669 0 80.881 36.211 80.88 80.881 0 44.669-36.211 80.881-80.88 80.88-44.669 0-80.881-36.211-80.881-80.88zM80.881 139.606c32.433 0 58.726-26.292 58.725-58.725 0-32.433-26.292-58.726-58.725-58.726-32.433 0-58.726 26.292-58.726 58.726 0 32.433 26.292 58.726 58.726 58.725z" fill="black" stroke="transparent"></path></g><g transform="matrix(1,0,0,1,70.37407200598122,70.37418874429918)"><svg viewBox="0 0 21.013130706497904 21.012897229862016" height="21.012897229862016" width="21.013130706497904"><g><svg xmlns="http://www.w3.org/2000/svg" xmlns:xlink="http://www.w3.org/1999/xlink" version="1.1" x="0" y="0" viewBox="4.967 5 90.001 90" enable-background="new 0 0 100 100" xml:space="preserve" height="21.012897229862016" width="21.013130706497904" class="icon-cg-0" data-fill-palette-color="accent" id="SvgjsSvg1066"><g fill="black"><polygon points="81.588,69.219 76.042,77.733 49.901,5 30.566,58.797 24.486,43.546 4.967,95 17.555,95 45,95 64.794,95 82.249,95    94.968,95  " fill="black"></polygon></g></svg></g></svg></g></svg></g></svg></g></svg></g><defs><mask></mask></defs></svg><rect width="395.52" height="211.0584857972675" fill="black" stroke="none" visibility="hidden"></rect></g></mask></svg><rect width="395.52" height="211.0584857972675" fill="black" stroke="none" visibility="hidden"></rect></g></mask></svg><rect width="395.52" height="211.0584857972675" fill="black" stroke="none" visibility="hidden"></rect></g></mask><linearGradient x1="0.054" x2="0.941" y1="0.5" y2="0.5" id="8acefad1-f2ce-4db1-9473-2f701c1aa980"><stop stop-color="#0f3054" offset="0"></stop><stop stop-color="#3b8dcb" offset="0.498"></stop><stop stop-color="#0f3054" offset="1"></stop></linearGradient><rect width="395.52" height="211.0584857972675" fill="url(#8acefad1-f2ce-4db1-9473-2f701c1aa980)" mask="url(#2d7093c8-5782-4ee5-b14d-7ae9840cfd84)" data-fill-palette-color="accent"></rect></svg><rect width="395.52" height="211.0584857972675" fill="none" stroke="none" visibility="hidden"></rect></g></svg></g></svg>